<svg width="2121" height="2122" viewBox="0 0 2121 2122" fill="none" xmlns="http://www.w3.org/2000/svg">
<path d="M1060.5 2121.5C1646.2 2121.5 2121 1646.7 2121 1061C2121 475.302 1646.2 0.5 1060.5 0.5C474.802 0.5 0 475.302 0 1061C0 1646.7 474.802 2121.5 1060.5 2121.5Z" fill="url(#paint0_radial_120_156)"/>
<mask id="mask0_120_156" style="mask-type:alpha" maskUnits="userSpaceOnUse" x="116" y="116" width="1890" height="1890">
<path d="M1061 2006C1582.91 2006 2006 1582.91 2006 1061C2006 539.091 1582.91 116 1061 116C539.091 116 116 539.091 116 1061C116 1582.91 539.091 2006 1061 2006Z" fill="#D9D9D9"/>
</mask>
<g mask="url(#mask0_120_156)">
<path d="M1080.75 -327.745C1080.75 -177.618 1080.75 -43.4336 1079.24 76.5016C1075.91 1085.96 1123.77 1085.96 2320.85 1085.96C1123.77 1085.96 1075.91 1085.96 1079.24 2059.98C1080.75 2175.72 1080.75 2305.19 1080.75 2450.06C1080.75 2305.19 1079.63 2175.71 1079.24 2059.98C1066.49 1085.96 946.43 1085.96 -184.137 1085.96C946.43 1085.96 1066.49 1085.96 1079.24 76.5016C1079.63 -43.4336 1080.75 -177.618 1080.75 -327.745Z" fill="white"/>
<path d="M650.936 -263.599C697.328 -120.82 738.794 6.79719 774.415 121.33C1083.18 1082.41 1128.71 1067.62 2267.19 697.701C1128.71 1067.62 1083.18 1082.41 1387.35 2007.74C1424.55 2117.33 1464.56 2240.48 1509.32 2378.24C1464.56 2240.48 1423.49 2117.67 1387.35 2007.74C1074.23 1085.32 960.044 1122.42 -115.188 1471.78C960.044 1122.42 1074.23 1085.32 774.415 121.33C737.729 7.14309 697.328 -120.82 650.936 -263.599Z" fill="white"/>
<path d="M262.012 -69.7737C350.254 51.6825 429.125 160.24 498.397 258.16C1089.04 1076.78 1127.77 1048.65 2096.21 345.029C1127.77 1048.65 1089.04 1076.78 1664.26 1862.84C1733.51 1955.57 1809.62 2060.31 1894.76 2177.51C1809.62 2060.31 1732.61 1956.23 1664.26 1862.84C1081.42 1082.32 984.293 1152.89 69.6465 1817.42C984.293 1152.89 1081.42 1082.32 498.397 258.16C428.221 160.898 350.254 51.6824 262.012 -69.7737Z" fill="white"/>
<path d="M-48.0039 234.749C73.4517 322.991 182.009 401.864 278.149 473.585C1092.86 1069.62 1120.99 1030.9 1824.61 62.4487C1120.99 1030.9 1092.86 1069.62 1882.82 1639.45C1977.34 1706.24 2082.1 1782.35 2199.29 1867.51C2082.1 1782.35 1976.68 1707.16 1882.82 1639.45C1087.32 1077.24 1016.75 1174.37 352.22 2089.03C1016.75 1174.37 1087.32 1077.24 278.149 473.585C181.352 402.768 73.4515 322.991 -48.0039 234.749Z" fill="white"/>
<path d="M-248.754 620.171C-105.975 666.563 21.6429 708.027 135.24 746.531C1094.26 1061.64 1109.05 1016.12 1478.96 -122.367C1109.05 1016.12 1094.26 1061.64 2021.64 1359.46C2132.18 1393.78 2255.31 1433.79 2393.09 1478.56C2255.31 1433.79 2131.83 1394.85 2021.64 1359.46C1091.35 1070.6 1054.25 1184.78 704.883 2260.01C1054.25 1184.78 1091.35 1070.6 135.24 746.531C21.2973 709.092 -105.975 666.563 -248.754 620.171Z" fill="white"/>
</g>
<defs>
<radialGradient id="paint0_radial_120_156" cx="0" cy="0" r="1" gradientUnits="userSpaceOnUse" gradientTransform="translate(1060.5 1061) rotate(90) scale(1060.5)">
<stop/>
<stop offset="1" stop-opacity="0"/>
</radialGradient>
</defs>
</svg>
