<svg width="2121" height="2121" viewBox="0 0 2121 2121" fill="none" xmlns="http://www.w3.org/2000/svg">
<path d="M1060.5 2121C1646.2 2121 2121 1646.2 2121 1060.5C2121 474.802 1646.2 0 1060.5 0C474.802 0 0 474.802 0 1060.5C0 1646.2 474.802 2121 1060.5 2121Z" fill="url(#paint0_radial_120_153)"/>
<mask id="mask0_120_153" style="mask-type:alpha" maskUnits="userSpaceOnUse" x="116" y="115" width="1890" height="1890">
<path d="M1061 2005C1582.91 2005 2006 1581.91 2006 1060C2006 538.091 1582.91 115 1061 115C539.091 115 116 538.091 116 1060C116 1581.91 539.091 2005 1061 2005Z" fill="#D9D9D9"/>
</mask>
<g mask="url(#mask0_120_153)">
<path d="M1066.15 -335.59C1066.15 -185.462 1066.15 -51.2783 1064.64 68.6569C1061.31 1078.11 1109.17 1078.11 2306.24 1078.11C1109.17 1078.11 1061.31 1078.11 1064.64 2052.14C1066.15 2167.87 1066.15 2297.35 1066.15 2442.2C1066.15 2297.35 1065.03 2167.87 1064.64 2052.14C1051.89 1078.11 931.829 1078.11 -198.736 1078.11C931.829 1078.11 1051.89 1078.11 1064.64 68.6569C1065.03 -51.2783 1066.15 -185.462 1066.15 -335.59Z" fill="black"/>
<path d="M2044.61 79.9834C1938.45 186.139 1843.58 281.023 1757.7 364.759C1041.55 1076.19 1075.39 1110.04 1921.85 1956.49C1075.39 1110.04 1041.55 1076.19 355.159 1767.29C274.399 1850.2 182.845 1941.76 80.4141 2044.18C182.845 1941.76 273.607 1849.4 355.159 1767.29C1034.89 1069.54 949.995 984.64 150.564 185.209C949.995 984.64 1034.89 1069.54 1757.7 364.759C1842.78 280.231 1938.45 186.139 2044.61 79.9834Z" fill="black"/>
</g>
<defs>
<radialGradient id="paint0_radial_120_153" cx="0" cy="0" r="1" gradientUnits="userSpaceOnUse" gradientTransform="translate(1060.5 1060.5) rotate(90) scale(1060.5)">
<stop stop-color="white"/>
<stop offset="1" stop-color="white" stop-opacity="0"/>
</radialGradient>
</defs>
</svg>
