<svg width="2121" height="2121" viewBox="0 0 2121 2121" fill="none" xmlns="http://www.w3.org/2000/svg">
<path d="M1060.5 2121C1646.2 2121 2121 1646.2 2121 1060.5C2121 474.802 1646.2 0 1060.5 0C474.802 0 0 474.802 0 1060.5C0 1646.2 474.802 2121 1060.5 2121Z" fill="url(#paint0_radial_120_154)"/>
<mask id="mask0_120_154" style="mask-type:alpha" maskUnits="userSpaceOnUse" x="116" y="115" width="1890" height="1890">
<path d="M1061 2005C1582.91 2005 2006 1581.91 2006 1060C2006 538.091 1582.91 115 1061 115C539.091 115 116 538.091 116 1060C116 1581.91 539.091 2005 1061 2005Z" fill="#D9D9D9"/>
</mask>
<g mask="url(#mask0_120_154)">
<path d="M1080.76 -330.591C1080.76 -180.464 1080.76 -46.2783 1079.24 73.6562C1075.91 1083.11 1123.78 1083.11 2320.85 1083.11C1123.78 1083.11 1075.91 1083.11 1079.24 2057.14C1080.76 2172.87 1080.76 2302.35 1080.76 2447.22C1080.76 2302.35 1079.64 2172.87 1079.24 2057.14C1066.49 1083.11 946.435 1083.11 -184.132 1083.11C946.435 1083.11 1066.49 1083.11 1079.24 73.6562C1079.64 -46.2783 1080.76 -180.464 1080.76 -330.591Z" fill="black"/>
<path d="M384.649 -150.704C459.714 -20.6909 526.806 95.5164 585.462 200.141C1087.3 1076.02 1128.76 1052.09 2165.45 453.551C1128.76 1052.09 1087.3 1076.02 1577.21 1917.9C1636.37 2017.36 1701.11 2129.49 1773.55 2254.95C1701.11 2129.49 1635.41 2017.92 1577.21 1917.9C1079.15 1080.73 975.172 1140.76 -3.92676 1706.04C975.172 1140.76 1079.15 1080.73 585.462 200.141C525.837 96.0759 459.714 -20.691 384.649 -150.704Z" fill="black"/>
<path d="M-128.277 353.135C1.73606 428.199 117.943 495.291 221.053 556.571C1093.6 1064.18 1117.53 1022.73 1716.06 -13.9629C1117.53 1022.73 1093.6 1064.18 1938.8 1548.32C2039.78 1604.87 2151.92 1669.6 2277.36 1742.04C2151.92 1669.6 2039.22 1605.84 1938.8 1548.32C1088.89 1072.34 1028.86 1176.31 463.578 2155.41C1028.86 1176.31 1088.89 1072.34 221.053 556.571C117.384 496.26 1.73592 428.198 -128.277 353.135Z" fill="black"/>
</g>
<defs>
<radialGradient id="paint0_radial_120_154" cx="0" cy="0" r="1" gradientUnits="userSpaceOnUse" gradientTransform="translate(1060.5 1060.5) rotate(90) scale(1060.5)">
<stop stop-color="white"/>
<stop offset="1" stop-color="white" stop-opacity="0"/>
</radialGradient>
</defs>
</svg>
